# xmcd
#
# Track frame offsets: 
#        150
#        22150
#        34965
#        54027
#        75380
#        90640
#        115052
#        137817
#        162962
#        178345
#        203300
#        219732
#
# Disc length: 3179 seconds
#
# Revision: 5
# Processed by: cddbd v1.5PL3 Copyright (c) Steve Scherf et al.
# Submitted via: ExactAudioCopy v0.90b3
#
DISCID=9b0c690c
DTITLE=Eddi Reader - Candyfloss and Medicine
DYEAR=1996
DGENRE=Folk/Rock
TTITLE0=Glasgow Star
TTITLE1=Candyfloss
TTITLE2=Rebel Angel
TTITLE3=Sugar on the Pill
TTITLE4=Semi Precious
TTITLE5=Medicine
TTITLE6=If You Got a Minute, Baby
TTITLE7=Lazy Heart
TTITLE8=Shall I Be Mother
TTITLE9=Butterfly Jar
TTITLE10=I Loved a Lad
TTITLE11=Darkhouse
EXTD=
EXTT0=
EXTT1=
EXTT2=
EXTT3=
EXTT4=
EXTT5=
EXTT6=
EXTT7=
EXTT8=
EXTT9=
EXTT10=
EXTT11=
PLAYORDER=
